<?xml version="1.0" encoding="UTF-8"?>
<svg id="Layer_2" data-name="Layer 2" xmlns="http://www.w3.org/2000/svg" viewBox="0 0 1037.53 344.16">
  <defs>
    <style>
      .cls-1 {
        fill: #fff;
      }
    </style>
  </defs>
  <g id="Layer_1-2" data-name="Layer 1">
    <g>
      <path class="cls-1" d="m209.26,149.55l-8.92,2.23c-14.65,3.5-17.83,7.96-37.58,64.02l-43,121.99h-29.94L28.35,160.7c-1.28-3.82-3.82-6.69-9.87-7.64l-17.52-3.5-.96-11.15h86.64l-.95,11.15-15.61,2.55c-11.47,1.91-8.6,6.69,0,33.12l42.04,127.41h3.5l33.13-96.83c18.16-53.19,14.01-63.06-2.23-65.3l-7.64-.95-.96-11.15h72.3l-.96,11.15Z"/>
      <path class="cls-1" d="m224.98,337.48l.96-11.15,8.92-.95c7.64-.64,10.83-2.23,10.83-6.06v-80.58c0-20.07-2.23-22.94-13.7-25.8l-7.64-1.91.32-8.6,47.14-12.42v129.63c0,3.18,1.91,5.1,12.1,5.73l9.24.95.96,11.15h-69.12Z"/>
      <path class="cls-1" d="m366.08,342.25c-21.02,0-38.22-12.42-37.58-44.91l2.23-85.68-25.8-1.59.32-9.55,20.7-17.2,20.7-17.52,10.19,1.91-.32,27.07h52.23l-2.23,15.93h-49.69l-2.55,79.63c-.64,23.25,10.51,31.21,27.39,31.21,8.28,0,17.84-3.18,26.43-7.96l1.59,7.96c-11.47,12.74-28.67,20.71-43.64,20.71Z"/>
      <path class="cls-1" d="m526.93,342.57c-12.42,0-20.38-7.33-21.34-23.25h-1.59c-11.15,12.42-23.57,22.94-39.49,22.94-20.07,0-38.22-15.93-38.22-37.27,0-26.44,25.16-41.41,79.63-54.15v-2.87c0-35.35-12.42-43.32-30.9-43.32-10.51,0-23.57,4.46-23.57,7.33,0,1.59,7.33,7.33,7.33,15.93,0,7.96-6.37,15.29-16.88,15.29-9.88,0-16.56-6.69-16.56-14.97,0-15.6,35.35-38.54,60.52-38.54,37.59,0,48.41,15.29,46.18,65.61l-2.23,54.15c-.32,7.96,2.23,12.42,7.33,12.42,4.46,0,8.92-2.55,15.61-7.65l5.42,7.01c-9.87,12.74-20.07,21.34-31.21,21.34Zm-21.66-81.22c-42.04,10.51-52.24,23.25-52.24,36.94,0,14.66,10.83,23.89,22.93,23.89,9.24,0,17.84-4.46,27.71-13.38l1.59-47.46Z"/>
      <path class="cls-1" d="m722.5,337.48h-151.29l.96-11.15,13.06-1.59c8.28-.96,11.15-2.87,11.15-5.73v-162.76c0-2.87-1.91-3.82-11.15-5.1l-13.06-1.59-.96-11.15h83.45l-.95,11.15-15.93,1.59c-8.28.96-11.15,2.87-11.15,5.73v168.17h9.87c57.33,0,62.75-1.91,67.21-15.93l9.24-35.35h16.56l-7.01,63.7Z"/>
      <path class="cls-1" d="m852.46,342.57c-12.42,0-20.38-7.33-21.34-23.25h-1.59c-11.15,12.42-23.57,22.94-39.49,22.94-20.07,0-38.22-15.93-38.22-37.27,0-26.44,25.16-41.41,79.63-54.15v-2.87c0-35.35-12.42-43.32-30.9-43.32-10.51,0-23.57,4.46-23.57,7.33,0,1.59,7.33,7.33,7.33,15.93,0,7.96-6.37,15.29-16.88,15.29-9.88,0-16.56-6.69-16.56-14.97,0-15.6,35.35-38.54,60.52-38.54,37.59,0,48.41,15.29,46.18,65.61l-2.23,54.15c-.32,7.96,2.23,12.42,7.33,12.42,4.46,0,8.92-2.55,15.61-7.65l5.42,7.01c-9.87,12.74-20.07,21.34-31.21,21.34Zm-21.66-81.22c-42.04,10.51-52.24,23.25-52.24,36.94,0,14.66,10.83,23.89,22.93,23.89,9.24,0,17.84-4.46,27.71-13.38l1.59-47.46Z"/>
      <path class="cls-1" d="m962.99,342.25c-7.64,0-27.39-3.5-35.99-7.01h-.32l-15.29,8.92h-3.82v-190.79c0-3.82-.96-6.37-3.5-7.33l-21.34-8.92.96-7.96,50.01-13.7v100.33h1.59c12.42-14.01,29.3-23.57,45.55-23.57,35.67,0,56.7,30.89,56.7,68.48,0,41.09-26.76,81.54-74.53,81.54Zm6.69-127.73c-15.29,0-28.03,8.92-35.99,18.79v76.44c8.92,9.88,20.7,19.43,36.31,19.43,20.38,0,39.18-22.3,39.18-56.7s-16.25-57.97-39.5-57.97Z"/>
    </g>
    <path class="cls-1" d="m279.39,146.22c0,6.15-2.18,11.4-6.54,15.76-4.36,4.36-9.71,6.54-16.06,6.54s-11.4-2.18-15.76-6.54c-4.36-4.36-6.54-9.61-6.54-15.76s2.18-11.39,6.54-15.76c4.36-4.36,9.61-6.54,15.76-6.54s11.69,2.18,16.06,6.54c4.36,4.36,6.54,9.62,6.54,15.76Z"/>
    <path class="cls-1" d="m220.8,76.01c0,4.73-1.68,8.77-5.03,12.13-3.36,3.36-7.47,5.03-12.35,5.03s-8.77-1.67-12.12-5.03c-3.36-3.35-5.03-7.4-5.03-12.13s1.68-8.77,5.03-12.12c3.35-3.35,7.4-5.03,12.12-5.03s9,1.68,12.35,5.03c3.35,3.36,5.03,7.4,5.03,12.12Z"/>
    <path class="cls-1" d="m335.99,32.08c0,8.84-3.14,16.4-9.41,22.67-6.27,6.28-13.98,9.41-23.1,9.41s-16.4-3.13-22.67-9.41c-6.28-6.27-9.41-13.83-9.41-22.67s3.13-16.39,9.41-22.67c6.27-6.27,13.83-9.41,22.67-9.41s16.82,3.14,23.1,9.41c6.27,6.28,9.41,13.84,9.41,22.67Z"/>
    <rect class="cls-1" x="258.34" y="92.32" width="39.27" height="4.16" transform="translate(83.19 314.04) rotate(-67.19)"/>
    <rect class="cls-1" x="229.35" y="100.15" width="4.16" height="20.62" transform="translate(-15.98 177.9) rotate(-40.76)"/>
  </g>
</svg>